<?xml version="1.0" encoding="UTF-8"?><svg id="Layer_2" xmlns="http://www.w3.org/2000/svg" viewBox="0 0 2399.65 2361.63"><defs><style>.cls-1{fill:#2176ff;}</style></defs><g id="Layer_1-2"><g><path class="cls-1" d="M1698.77,263.32L1279.86,21.4c-24.78-14.27-52.39-21.4-80-21.4s-55.28,7.13-80,21.4l-418.97,241.92c-49.5,28.54-80,81.36-80,138.55v479.37c0,59.88,31.95,115.22,83.81,145.16l388.96,224.52,22.39,12.93c51.86,29.95,115.76,29.95,167.62,0l22.39-12.93,388.91-224.52c51.86-29.94,83.81-85.27,83.81-145.15V401.87c0-57.18-30.5-110.01-80-138.55Zm-865.5,168.77l366.58-211.64,366.52,211.64v423.27l-366.52,211.64-366.58-211.64V432.09Z"/><g><path class="cls-1" d="M1051.7,1322.3l-388.97-224.53c-51.86-29.93-115.75-29.93-167.6,.01l-22.4,12.94-392.72,226.72C30.5,1366.02,0,1418.84,0,1476v483.79c0,57.17,30.5,109.99,80,138.57l418.92,241.86c24.78,14.27,52.39,21.4,80,21.4s55.28-7.13,80-21.4l392.77-226.78,22.41-12.94c51.85-29.94,83.79-85.27,83.79-145.14v-474.99c0-59.88-31.94-115.2-83.79-145.14l-22.41-12.94Zm-472.78,818.88l-366.52-211.64v-423.27l366.52-211.64,366.58,211.64v423.27l-366.58,211.64Z"/><path class="cls-1" d="M2319.61,1337.41l-392.73-226.7-22.4-12.93c-51.86-29.94-115.75-29.95-167.61,0l-388.91,224.52-22.41,12.94c-51.85,29.94-83.79,85.27-83.79,145.14v474.99c0,59.88,31.94,115.2,83.79,145.14l22.41,12.94,392.72,226.78c24.78,14.27,52.39,21.4,80,21.4s55.28-7.13,80-21.4l418.93-241.84c49.53-28.59,80.04-81.44,80.04-138.63v-483.72c0-57.19-30.51-110.04-80.04-138.63Zm-132.35,592.13l-366.58,211.64-366.52-211.64v-423.27l366.52-211.64,366.58,211.64v423.27Z"/></g></g></g></svg>